<?xml version="1.0" standalone="no"?><!DOCTYPE svg PUBLIC "-//W3C//DTD SVG 1.1//EN" "http://www.w3.org/Graphics/SVG/1.1/DTD/svg11.dtd"><svg t="1690860659341" class="icon" viewBox="0 0 1024 1024" version="1.1" xmlns="http://www.w3.org/2000/svg" p-id="8912" xmlns:xlink="http://www.w3.org/1999/xlink" width="200" height="200"><path d="M703.808 128H128.192a64 64 0 0 0-46.464 19.968l-5.12 6.208a64 64 0 0 0 7.552 84.288L320 461.696 320 960l192-144V461.696l235.84-223.232A64 64 0 0 0 703.808 128zM128.192 192h575.616L448 434.24v349.696l-64.064 48L384 434.24 128.192 192z m647.552 538.496L685.248 640l-45.248 45.248 90.496 90.496L640 866.304l45.248 45.248 90.496-90.56 90.56 90.56 45.248-45.248-90.496-90.56 90.496-90.496-45.248-45.248-90.56 90.496z" fill="currentColor" p-id="8913"></path></svg>
